<svg xmlns="http://www.w3.org/2000/svg" width="300.001" height="500" viewBox="0 0 300.001 500">
  <g id="Group_22" data-name="Group 22" transform="translate(5794 1387)">
    <path id="Path_28" data-name="Path 28" d="M0,0H300V500H0Z" transform="translate(-5794 -1387)" fill="#fff"/>
    <path id="Subtraction_18" data-name="Subtraction 18" d="M73,180h0V33h69.652c1.759,2.147,3.434,4.394,4.978,6.68A89.955,89.955,0,0,1,73,180Z" transform="translate(-5867 -1420)" fill="#2196f3" opacity="0.499"/>
    <path id="Subtraction_17" data-name="Subtraction 17" d="M479,123H280V77H479v46Z" transform="translate(-6074 -1464)" fill="#bbdefb" opacity="0.501"/>
    <path id="Subtraction_19" data-name="Subtraction 19" d="M530,124H280V77H530v47Z" transform="translate(-5416.999 -1417.499) rotate(90)" fill="#bbdefb" opacity="0.501"/>
    <path id="Subtraction_21" data-name="Subtraction 21" d="M0,0H0V147H69.652c1.759-2.147,3.434-4.394,4.978-6.68a90.112,90.112,0,0,0,8.3-15.287,89.552,89.552,0,0,0,5.243-16.895A90.6,90.6,0,0,0,90,90a90.606,90.606,0,0,0-1.829-18.139,89.533,89.533,0,0,0-5.243-16.894,90.112,90.112,0,0,0-8.3-15.287A90.7,90.7,0,0,0,63.64,26.36,90.748,90.748,0,0,0,50.32,15.37a90.084,90.084,0,0,0-15.288-8.3A89.591,89.591,0,0,0,18.138,1.828,90.651,90.651,0,0,0,0,0Z" transform="translate(-5641 -887) rotate(-90)" fill="#2196f3" opacity="0.499"/>
  </g>
</svg>
